<?xml version="1.0" encoding="utf-8"?>
<!-- Generator: Adobe Illustrator 16.0.0, SVG Export Plug-In . SVG Version: 6.00 Build 0)  -->
<!DOCTYPE svg PUBLIC "-//W3C//DTD SVG 1.1//EN" "http://www.w3.org/Graphics/SVG/1.1/DTD/svg11.dtd">
<svg version="1.1" id="Layer_1" xmlns="http://www.w3.org/2000/svg" xmlns:xlink="http://www.w3.org/1999/xlink" x="0px" y="0px"
	 width="1000px" height="543.173px" viewBox="0 228.525 1000 543.173" enable-background="new 0 228.525 1000 543.173"
	 xml:space="preserve">
<g>
	<path id="path-2" fill="#FFFFFF" d="M688.68,508.68L688.68,508.68c-17.736,14.717-39.246,30.943-65.283,48.679
		c-7.548,5.283-15.472,10.566-23.773,15.85L555.472,500c-0.755-1.132-0.755-2.642,0-3.773l134.34-221.132
		c2.264-3.396,6.792-4.528,10.188-2.642c1.132,0.755,1.887,1.51,2.642,2.642l295.095,485.283c2.264,3.396,1.132,8.303-2.643,10.189
		c-1.132,0.754-2.641,1.132-3.773,1.132H724.905c-2.642,0-4.905-1.51-6.415-3.773l-88.679-145.661
		c9.057-5.66,17.735-11.697,26.415-17.358c26.037-17.735,48.302-34.717,66.792-49.811l23.02,31.32
		c1.132,1.51,3.773,1.887,5.282,0.755c0.755-0.377,1.133-1.132,1.51-1.887l29.812-109.057c0.377-1.887-0.755-4.151-2.642-4.528
		c-0.378,0-0.755,0-1.132,0H668.679c-2.264,0-3.773,1.51-3.773,3.773c0,0.755,0.378,1.51,0.755,2.265L688.68,508.68z
		 M558.49,598.868c-61.509,36.98-133.207,73.585-215.472,108.302c-53.962,23.019-111.32,44.528-172.075,64.528H7.924
		c-4.151,0-7.547-3.396-7.547-7.547c0-1.51,0.377-2.642,1.132-3.774l321.132-528.302c2.264-3.396,6.792-4.528,10.188-2.641
		c1.132,0.754,1.887,1.509,2.642,2.641L558.49,598.868z M588.68,648.302l67.924,112.075c2.265,3.396,1.133,8.303-2.642,10.189
		c-1.132,0.754-2.642,1.132-3.773,1.132H338.113c9.057-3.773,18.49-7.547,27.547-11.321
		C450.566,724.528,524.528,686.415,588.68,648.302z"/>
</g>
<title>Combined Shape</title>
<desc>Created with Sketch.</desc>
<g id="Symbols">
	<g id="Symbol-Copy">
		<g id="Combined-Shape">
			<path id="path-2_1_" fill="#FF0000" d="M684.007,508.452L684.007,508.452c-17.264,14.324-38.2,30.119-63.544,47.382
				c-7.347,5.143-15.06,10.285-23.141,15.428l-42.976-71.259c-0.734-1.102-0.734-2.571,0-3.673l130.763-215.243
				c2.203-3.306,6.61-4.408,9.917-2.571c1.102,0.735,1.836,1.47,2.571,2.571l287.235,472.358c2.203,3.307,1.102,8.082-2.572,9.918
				c-1.102,0.734-2.57,1.102-3.673,1.102h-259.32c-2.571,0-4.774-1.469-6.244-3.673l-86.316-141.781
				c8.815-5.51,17.263-11.386,25.712-16.896c25.343-17.263,47.015-33.792,65.013-48.483l22.406,30.485
				c1.102,1.47,3.673,1.837,5.142,0.735c0.734-0.367,1.103-1.102,1.47-1.837l29.018-106.152c0.367-1.836-0.735-4.041-2.571-4.408
				c-0.368,0-0.734,0-1.102,0H664.539c-2.203,0-3.673,1.47-3.673,3.673c0,0.735,0.367,1.47,0.734,2.205L684.007,508.452z
				 M557.285,596.238c-59.871,35.995-129.659,71.625-209.733,105.417c-52.525,22.405-108.355,43.343-167.492,62.81H21.382
				c-4.04,0-7.346-3.306-7.346-7.346c0-1.47,0.367-2.571,1.102-3.674l312.58-514.231c2.204-3.305,6.611-4.407,9.917-2.571
				c1.102,0.734,1.837,1.469,2.571,2.571L557.285,596.238z M586.671,644.355l66.114,109.09c2.204,3.307,1.103,8.082-2.571,9.918
				c-1.102,0.734-2.571,1.102-3.673,1.102H342.777c8.815-3.673,17.998-7.346,26.813-11.02
				C452.236,718.552,524.228,681.453,586.671,644.355z"/>
		</g>
	</g>
</g>
</svg>
